<mxfile host="app.diagrams.net" modified="2021-07-15T09:10:00.339Z" agent="5.0 (Macintosh; Intel Mac OS X 10_15_7) AppleWebKit/605.1.15 (KHTML, like Gecko) Version/14.1 Safari/605.1.15" etag="2rzw6T-0pazRXWG41fAo" version="14.8.6" type="github">
  <diagram id="C5RBs43oDa-KdzZeNtuy" name="Page-1">
    <mxGraphModel dx="1138" dy="894" grid="1" gridSize="10" guides="1" tooltips="1" connect="1" arrows="1" fold="1" page="1" pageScale="1" pageWidth="827" pageHeight="1169" math="0" shadow="0">
      <root>
        <mxCell id="WIyWlLk6GJQsqaUBKTNV-0" />
        <mxCell id="WIyWlLk6GJQsqaUBKTNV-1" parent="WIyWlLk6GJQsqaUBKTNV-0" />
        <mxCell id="ZMixVQ0Gz-YtC1CHfT-o-0" value="" style="rounded=0;whiteSpace=wrap;html=1;dashed=1;" vertex="1" parent="WIyWlLk6GJQsqaUBKTNV-1">
          <mxGeometry x="70" y="80" width="840" height="590" as="geometry" />
        </mxCell>
        <mxCell id="ZMixVQ0Gz-YtC1CHfT-o-1" value="" style="endArrow=none;html=1;dashed=1;" edge="1" parent="WIyWlLk6GJQsqaUBKTNV-1">
          <mxGeometry width="50" height="50" relative="1" as="geometry">
            <mxPoint x="68" y="310" as="sourcePoint" />
            <mxPoint x="910" y="310" as="targetPoint" />
          </mxGeometry>
        </mxCell>
        <mxCell id="ZMixVQ0Gz-YtC1CHfT-o-2" value="A" style="rounded=0;whiteSpace=wrap;html=1;fillColor=#F8CECC;" vertex="1" parent="WIyWlLk6GJQsqaUBKTNV-1">
          <mxGeometry x="250" y="125" width="120" height="50" as="geometry" />
        </mxCell>
        <mxCell id="ZMixVQ0Gz-YtC1CHfT-o-3" value="B" style="rounded=0;whiteSpace=wrap;html=1;fillColor=#FFF2CC;" vertex="1" parent="WIyWlLk6GJQsqaUBKTNV-1">
          <mxGeometry x="370" y="125" width="120" height="50" as="geometry" />
        </mxCell>
        <mxCell id="ZMixVQ0Gz-YtC1CHfT-o-4" value="C" style="rounded=0;whiteSpace=wrap;html=1;fillColor=#F8CECC;" vertex="1" parent="WIyWlLk6GJQsqaUBKTNV-1">
          <mxGeometry x="490" y="125" width="120" height="50" as="geometry" />
        </mxCell>
        <mxCell id="ZMixVQ0Gz-YtC1CHfT-o-5" value="D" style="rounded=0;whiteSpace=wrap;html=1;fillColor=#FFF2CC;" vertex="1" parent="WIyWlLk6GJQsqaUBKTNV-1">
          <mxGeometry x="610" y="125" width="120" height="50" as="geometry" />
        </mxCell>
        <mxCell id="ZMixVQ0Gz-YtC1CHfT-o-6" value="J" style="rounded=0;whiteSpace=wrap;html=1;fillColor=#F8CECC;" vertex="1" parent="WIyWlLk6GJQsqaUBKTNV-1">
          <mxGeometry x="250" y="225" width="120" height="50" as="geometry" />
        </mxCell>
        <mxCell id="ZMixVQ0Gz-YtC1CHfT-o-7" value="B" style="rounded=0;whiteSpace=wrap;html=1;fillColor=#FFF2CC;" vertex="1" parent="WIyWlLk6GJQsqaUBKTNV-1">
          <mxGeometry x="370" y="225" width="120" height="50" as="geometry" />
        </mxCell>
        <mxCell id="ZMixVQ0Gz-YtC1CHfT-o-8" value="K" style="rounded=0;whiteSpace=wrap;html=1;fillColor=#F8CECC;" vertex="1" parent="WIyWlLk6GJQsqaUBKTNV-1">
          <mxGeometry x="490" y="225" width="120" height="50" as="geometry" />
        </mxCell>
        <mxCell id="ZMixVQ0Gz-YtC1CHfT-o-9" value="D" style="rounded=0;whiteSpace=wrap;html=1;fillColor=#FFF2CC;" vertex="1" parent="WIyWlLk6GJQsqaUBKTNV-1">
          <mxGeometry x="610" y="225" width="120" height="50" as="geometry" />
        </mxCell>
        <mxCell id="ZMixVQ0Gz-YtC1CHfT-o-10" value="静态库" style="text;html=1;strokeColor=none;fillColor=none;align=center;verticalAlign=middle;whiteSpace=wrap;rounded=0;fontSize=18;" vertex="1" parent="WIyWlLk6GJQsqaUBKTNV-1">
          <mxGeometry x="110" y="190" width="70" height="20" as="geometry" />
        </mxCell>
        <mxCell id="ZMixVQ0Gz-YtC1CHfT-o-12" value="动态库" style="text;html=1;strokeColor=none;fillColor=none;align=center;verticalAlign=middle;whiteSpace=wrap;rounded=0;fontSize=18;" vertex="1" parent="WIyWlLk6GJQsqaUBKTNV-1">
          <mxGeometry x="110" y="470" width="70" height="20" as="geometry" />
        </mxCell>
        <mxCell id="ZMixVQ0Gz-YtC1CHfT-o-13" value="A" style="rounded=0;whiteSpace=wrap;html=1;fillColor=#F8CECC;" vertex="1" parent="WIyWlLk6GJQsqaUBKTNV-1">
          <mxGeometry x="250" y="340" width="120" height="50" as="geometry" />
        </mxCell>
        <mxCell id="ZMixVQ0Gz-YtC1CHfT-o-14" value="B" style="rounded=0;whiteSpace=wrap;html=1;fillColor=none;dashed=1;" vertex="1" parent="WIyWlLk6GJQsqaUBKTNV-1">
          <mxGeometry x="370" y="340" width="120" height="50" as="geometry" />
        </mxCell>
        <mxCell id="ZMixVQ0Gz-YtC1CHfT-o-15" value="C" style="rounded=0;whiteSpace=wrap;html=1;fillColor=#F8CECC;" vertex="1" parent="WIyWlLk6GJQsqaUBKTNV-1">
          <mxGeometry x="490" y="340" width="120" height="50" as="geometry" />
        </mxCell>
        <mxCell id="ZMixVQ0Gz-YtC1CHfT-o-16" value="D" style="rounded=0;whiteSpace=wrap;html=1;fillColor=none;dashed=1;" vertex="1" parent="WIyWlLk6GJQsqaUBKTNV-1">
          <mxGeometry x="610" y="340" width="120" height="50" as="geometry" />
        </mxCell>
        <mxCell id="ZMixVQ0Gz-YtC1CHfT-o-17" value="J" style="rounded=0;whiteSpace=wrap;html=1;fillColor=#F8CECC;" vertex="1" parent="WIyWlLk6GJQsqaUBKTNV-1">
          <mxGeometry x="250" y="580" width="120" height="50" as="geometry" />
        </mxCell>
        <mxCell id="ZMixVQ0Gz-YtC1CHfT-o-18" value="B" style="rounded=0;whiteSpace=wrap;html=1;fillColor=none;dashed=1;" vertex="1" parent="WIyWlLk6GJQsqaUBKTNV-1">
          <mxGeometry x="370" y="580" width="120" height="50" as="geometry" />
        </mxCell>
        <mxCell id="ZMixVQ0Gz-YtC1CHfT-o-19" value="K" style="rounded=0;whiteSpace=wrap;html=1;fillColor=#F8CECC;" vertex="1" parent="WIyWlLk6GJQsqaUBKTNV-1">
          <mxGeometry x="490" y="580" width="120" height="50" as="geometry" />
        </mxCell>
        <mxCell id="ZMixVQ0Gz-YtC1CHfT-o-20" value="D" style="rounded=0;whiteSpace=wrap;html=1;fillColor=none;dashed=1;" vertex="1" parent="WIyWlLk6GJQsqaUBKTNV-1">
          <mxGeometry x="610" y="580" width="120" height="50" as="geometry" />
        </mxCell>
        <mxCell id="ZMixVQ0Gz-YtC1CHfT-o-26" value="B" style="rounded=0;whiteSpace=wrap;html=1;fillColor=#FFF2CC;" vertex="1" parent="WIyWlLk6GJQsqaUBKTNV-1">
          <mxGeometry x="760" y="430" width="120" height="50" as="geometry" />
        </mxCell>
        <mxCell id="ZMixVQ0Gz-YtC1CHfT-o-28" value="D" style="rounded=0;whiteSpace=wrap;html=1;fillColor=#FFF2CC;" vertex="1" parent="WIyWlLk6GJQsqaUBKTNV-1">
          <mxGeometry x="760" y="500" width="120" height="50" as="geometry" />
        </mxCell>
        <mxCell id="ZMixVQ0Gz-YtC1CHfT-o-29" value="" style="endArrow=classic;html=1;dashed=1;fontSize=18;exitX=0;exitY=0.5;exitDx=0;exitDy=0;entryX=0.5;entryY=1;entryDx=0;entryDy=0;fillColor=#f8cecc;strokeColor=#b85450;" edge="1" parent="WIyWlLk6GJQsqaUBKTNV-1" source="ZMixVQ0Gz-YtC1CHfT-o-26" target="ZMixVQ0Gz-YtC1CHfT-o-14">
          <mxGeometry width="50" height="50" relative="1" as="geometry">
            <mxPoint x="490" y="480" as="sourcePoint" />
            <mxPoint x="540" y="430" as="targetPoint" />
          </mxGeometry>
        </mxCell>
        <mxCell id="ZMixVQ0Gz-YtC1CHfT-o-30" value="" style="endArrow=classic;html=1;dashed=1;fontSize=18;exitX=0;exitY=0.5;exitDx=0;exitDy=0;entryX=0.5;entryY=0;entryDx=0;entryDy=0;fillColor=#f8cecc;strokeColor=#b85450;" edge="1" parent="WIyWlLk6GJQsqaUBKTNV-1" source="ZMixVQ0Gz-YtC1CHfT-o-26" target="ZMixVQ0Gz-YtC1CHfT-o-18">
          <mxGeometry width="50" height="50" relative="1" as="geometry">
            <mxPoint x="490" y="480" as="sourcePoint" />
            <mxPoint x="540" y="430" as="targetPoint" />
          </mxGeometry>
        </mxCell>
        <mxCell id="ZMixVQ0Gz-YtC1CHfT-o-31" value="" style="endArrow=classic;html=1;dashed=1;fontSize=18;exitX=0;exitY=0.5;exitDx=0;exitDy=0;entryX=0.5;entryY=0;entryDx=0;entryDy=0;fillColor=#dae8fc;strokeColor=#6c8ebf;" edge="1" parent="WIyWlLk6GJQsqaUBKTNV-1" source="ZMixVQ0Gz-YtC1CHfT-o-28" target="ZMixVQ0Gz-YtC1CHfT-o-20">
          <mxGeometry width="50" height="50" relative="1" as="geometry">
            <mxPoint x="530" y="490" as="sourcePoint" />
            <mxPoint x="580" y="440" as="targetPoint" />
          </mxGeometry>
        </mxCell>
        <mxCell id="ZMixVQ0Gz-YtC1CHfT-o-32" value="" style="endArrow=classic;html=1;dashed=1;fontSize=18;exitX=0;exitY=0.5;exitDx=0;exitDy=0;entryX=0.5;entryY=1;entryDx=0;entryDy=0;fillColor=#dae8fc;strokeColor=#6c8ebf;" edge="1" parent="WIyWlLk6GJQsqaUBKTNV-1" source="ZMixVQ0Gz-YtC1CHfT-o-28" target="ZMixVQ0Gz-YtC1CHfT-o-16">
          <mxGeometry width="50" height="50" relative="1" as="geometry">
            <mxPoint x="490" y="480" as="sourcePoint" />
            <mxPoint x="540" y="430" as="targetPoint" />
          </mxGeometry>
        </mxCell>
      </root>
    </mxGraphModel>
  </diagram>
</mxfile>
